# Blender 4.5.4 LTS
# www.blender.org
mtllib level.mtl
o Plane
v -100.000000 170.099869 100.000000
v 100.000000 170.099869 100.000000
v -100.000000 170.099869 -104.799507
v 100.000000 170.099869 -104.799507
v -100.000000 170.099869 0.000000
v 0.000000 0.000000 100.000000
v 100.000000 170.099869 0.000000
v 0.000000 170.099869 -250.031326
v 0.000000 0.000000 0.000000
v -100.000000 170.099869 50.000000
v 50.000000 0.000000 100.000000
v 100.000000 170.099869 -50.000000
v -50.000000 170.099869 -236.903137
v -100.000000 170.099869 -50.000000
v -50.000000 0.000000 100.000000
v 100.000000 170.099869 50.000000
v 50.000000 170.099869 -236.903137
v 0.000000 0.000000 -50.000000
v 0.000000 0.000000 50.000000
v -50.000000 0.000000 0.000000
v 50.000000 0.000000 0.000000
v 50.000000 0.000000 50.000000
v -50.000000 0.000000 50.000000
v -50.000000 0.000000 -50.000000
v 50.000000 0.000000 -50.000000
v -100.000000 170.099869 75.000000
v 75.000000 170.099869 100.000000
v 100.000000 170.099869 -75.000198
v -75.000000 170.099869 -208.021194
v -100.000000 170.099869 -25.000000
v -25.000000 0.000000 100.000000
v 100.000000 170.099869 25.000000
v 25.000000 170.099869 -250.031326
v 0.000000 170.099869 -225.031326
v 0.000000 0.000000 25.000000
v -75.000000 170.099869 0.000000
v 25.000000 0.000000 0.000000
v -100.000000 170.099869 25.000000
v 25.000000 0.000000 100.000000
v 100.000000 170.099869 -25.000000
v -25.000000 170.099869 -250.031326
v -100.000000 170.099869 -75.000198
v -75.000000 170.099869 100.000000
v 100.000000 170.099869 75.000000
v 75.000000 170.099869 -208.021194
v 0.000000 0.000000 -25.000000
v 0.000000 0.000000 75.000000
v -25.000000 0.000000 0.000000
v 75.000000 170.099869 0.000000
v 50.000000 0.000000 25.000000
v 50.000000 0.000000 75.000000
v 25.000000 0.000000 50.000000
v 75.000000 170.099869 50.000000
v -50.000000 0.000000 25.000000
v -50.000000 0.000000 75.000000
v -75.000000 170.099869 50.000000
v -25.000000 0.000000 50.000000
v -50.000000 170.099869 -211.903137
v -50.000000 0.000000 -25.000000
v -75.000000 170.099869 -50.000000
v -25.000000 0.000000 -50.000000
v 50.000000 170.099869 -211.903137
v 50.000000 0.000000 -25.000000
v 25.000000 0.000000 -50.000000
v 75.000000 170.099869 -50.000000
v 75.000000 170.099869 -25.000000
v 25.000000 0.000000 -25.000000
v 25.000000 170.099869 -225.031326
v -25.000000 0.000000 -25.000000
v -75.000000 170.099869 -25.000000
v -75.000000 170.099869 -183.021194
v -25.000000 0.000000 75.000000
v -75.000000 170.099869 75.000000
v -75.000000 170.099869 25.000000
v 75.000000 170.099869 75.000000
v 25.000000 0.000000 75.000000
v 25.000000 0.000000 25.000000
v 75.000000 170.099869 25.000000
v -25.000000 0.000000 25.000000
v -25.000000 170.099869 -225.031326
v 75.000000 170.099869 -183.021194
v -100.000000 170.099869 87.500000
v 87.500000 170.099869 100.000000
v 100.000000 170.099869 -88.978287
v -87.500000 170.099869 -168.458939
v -100.000000 170.099869 -12.500000
v -12.500000 0.000000 100.000000
v 100.000000 170.099869 12.500000
v 12.500000 170.099869 -250.031326
v 0.000000 170.099869 -237.531326
v 0.000000 0.000000 12.500000
v -87.500000 170.099869 0.000000
v 12.500000 0.000000 0.000000
v -100.000000 170.099869 37.500000
v 37.500000 0.000000 100.000000
v 100.000000 170.099869 -37.500000
v -37.500000 170.099869 -246.421082
v -100.000000 170.099869 -62.500000
v 100.000000 170.099869 62.500000
v 0.000000 0.000000 -37.500000
v 0.000000 0.000000 62.500000
v -37.500000 0.000000 0.000000
v 50.000000 0.000000 12.500000
v 50.000000 0.000000 62.500000
v 12.500000 0.000000 50.000000
v -50.000000 0.000000 12.500000
v -50.000000 0.000000 62.500000
v -87.500000 170.099869 50.000000
v -37.500000 0.000000 50.000000
v -50.000000 170.099869 -224.403137
v -50.000000 0.000000 -37.500000
v -87.500000 170.099869 -50.000000
v -37.500000 0.000000 -50.000000
v 50.000000 170.099869 -224.403137
v 50.000000 0.000000 -37.500000
v 12.500000 0.000000 -50.000000
v -100.000000 170.099869 62.500000
v 100.000000 170.099869 -62.500000
v -100.000000 170.099869 -37.500000
v -37.500000 0.000000 100.000000
v 100.000000 170.099869 37.500000
v 37.500000 170.099869 -246.421082
v 0.000000 0.000000 -62.500000
v 0.000000 0.000000 37.500000
v 37.500000 0.000000 0.000000
v -100.000000 170.099869 12.500000
v 12.500000 0.000000 100.000000
v 100.000000 170.099869 -12.500000
v -12.500000 170.099869 -250.031326
v -100.000000 170.099869 -88.978287
v -87.500000 170.099869 100.000000
v 100.000000 170.099869 87.500000
v 87.500000 170.099869 -168.458939
v 0.000000 0.000000 -12.500000
v 0.000000 0.000000 87.500000
v -12.500000 0.000000 0.000000
v 87.500000 170.099869 0.000000
v 50.000000 0.000000 37.500000
v 50.000000 0.000000 87.500000
v 37.500000 0.000000 50.000000
v 87.500000 170.099869 50.000000
v -50.000000 0.000000 37.500000
v -50.000000 0.000000 87.500000
v -12.500000 0.000000 50.000000
v -50.000000 0.000000 -62.500000
v -50.000000 0.000000 -12.500000
v -12.500000 0.000000 -50.000000
v 50.000000 0.000000 -62.500000
v 50.000000 0.000000 -12.500000
v 37.500000 0.000000 -50.000000
v 87.500000 170.099869 -50.000000
v 75.000000 170.099869 -37.500000
v 75.000000 170.099869 -12.500000
v 87.500000 170.099869 -25.000000
v 25.000000 0.000000 -37.500000
v 25.000000 0.000000 -12.500000
v 12.500000 0.000000 -25.000000
v 37.500000 0.000000 -25.000000
v 25.000000 170.099869 -237.531326
v 25.000000 0.000000 -62.500000
v 12.500000 170.099869 -225.031326
v 37.500000 170.099869 -221.421082
v -25.000000 0.000000 -37.500000
v -25.000000 0.000000 -12.500000
v -37.500000 0.000000 -25.000000
v -12.500000 0.000000 -25.000000
v -75.000000 170.099869 -37.500000
v -75.000000 170.099869 -12.500000
v -87.500000 170.099869 -25.000000
v -75.000000 170.099869 -195.521194
v -75.000000 170.099869 -63.651169
v -87.500000 170.099869 -76.958618
v -25.000000 0.000000 62.500000
v -25.000000 0.000000 87.500000
v -37.500000 0.000000 75.000000
v -12.500000 0.000000 75.000000
v -75.000000 170.099869 62.500000
v -75.000000 170.099869 87.500000
v -87.500000 170.099869 75.000000
v -75.000000 170.099869 12.500000
v -75.000000 170.099869 37.500000
v -87.500000 170.099869 25.000000
v 75.000000 170.099869 62.500000
v 75.000000 170.099869 87.500000
v 87.500000 170.099869 75.000000
v 25.000000 0.000000 62.500000
v 25.000000 0.000000 87.500000
v 12.500000 0.000000 75.000000
v 37.500000 0.000000 75.000000
v 25.000000 0.000000 12.500000
v 25.000000 0.000000 37.500000
v 12.500000 0.000000 25.000000
v 37.500000 0.000000 25.000000
v 75.000000 170.099869 12.500000
v 75.000000 170.099869 37.500000
v 87.500000 170.099869 25.000000
v -25.000000 0.000000 12.500000
v -25.000000 0.000000 37.500000
v -37.500000 0.000000 25.000000
v -12.500000 0.000000 25.000000
v -25.000000 170.099869 -237.531326
v -25.000000 0.000000 -62.500000
v -37.500000 170.099869 -221.421082
v -12.500000 170.099869 -225.031326
v 75.000000 170.099869 -195.521194
v 75.000000 170.099869 -63.651169
v 87.500000 170.099869 -76.958618
v 87.500000 170.099869 -62.500000
v -12.500000 0.000000 -62.500000
v -37.500000 0.000000 -62.500000
v -37.500000 170.099869 -233.921082
v -12.500000 0.000000 37.500000
v -37.500000 0.000000 37.500000
v -37.500000 0.000000 12.500000
v 87.500000 170.099869 37.500000
v 37.500000 0.000000 37.500000
v 12.500000 0.000000 37.500000
v 12.500000 0.000000 12.500000
v 37.500000 0.000000 87.500000
v 12.500000 0.000000 87.500000
v 12.500000 0.000000 62.500000
v 87.500000 170.099869 87.500000
v -87.500000 170.099869 37.500000
v -87.500000 170.099869 12.500000
v -87.500000 170.099869 87.500000
v -87.500000 170.099869 62.500000
v -12.500000 0.000000 87.500000
v -37.500000 0.000000 87.500000
v -37.500000 0.000000 62.500000
v -87.500000 170.099869 -62.500000
v -87.500000 170.099869 -94.481094
v -87.500000 170.099869 -12.500000
v -87.500000 170.099869 -37.500000
v -12.500000 0.000000 -12.500000
v -37.500000 0.000000 -12.500000
v -37.500000 0.000000 -37.500000
v 37.500000 0.000000 -62.500000
v 12.500000 0.000000 -62.500000
v 12.500000 170.099869 -237.531326
v 37.500000 0.000000 -12.500000
v 12.500000 0.000000 -12.500000
v 12.500000 0.000000 -37.500000
v 87.500000 170.099869 -12.500000
v 87.500000 170.099869 -37.500000
v 37.500000 0.000000 -37.500000
v 37.500000 170.099869 -233.921082
v -12.500000 0.000000 -37.500000
v -12.500000 0.000000 62.500000
v 87.500000 170.099869 62.500000
v 37.500000 0.000000 62.500000
v 37.500000 0.000000 12.500000
v 87.500000 170.099869 12.500000
v -12.500000 0.000000 12.500000
v -12.500000 170.099869 -237.531326
v 87.500000 170.099869 -94.481094
v -52.657898 0.000000 100.000000
v -63.260059 10.342925 100.000000
v -56.482159 0.787309 100.000000
v -59.839928 3.029372 100.000000
v -62.220013 6.384859 100.000000
v 52.657898 170.099869 -234.304947
v 68.818962 170.099869 -215.771484
v 56.698166 170.099869 -230.056931
v 60.738434 170.099869 -225.507660
v 64.778694 170.099869 -220.723694
v 63.282181 10.643921 0.000000
v 52.657898 0.000000 0.000000
v 62.233662 6.570669 0.000000
v 59.846401 3.117532 0.000000
v 56.483841 0.810221 0.000000
v 52.657898 0.000000 50.000000
v 63.264149 10.398540 50.000000
v 56.482475 0.791542 50.000000
v 59.841125 3.045662 50.000000
v 62.222534 6.419191 50.000000
v 52.657898 0.000000 -50.000000
v 63.339622 11.425582 -50.000000
v 56.488216 0.869721 -50.000000
v 59.863235 3.346476 -50.000000
v 62.269127 7.053201 -50.000000
v 63.260059 10.342925 100.000000
v 52.657898 0.000000 100.000000
v 62.220013 6.384859 100.000000
v 59.839928 3.029372 100.000000
v 56.482159 0.787309 100.000000
v -68.818962 170.099869 -215.771484
v -52.657898 170.099869 -234.304947
v -64.778694 170.099869 -220.723694
v -60.738434 170.099869 -225.507660
v -56.698166 170.099869 -230.056931
v -63.282181 10.643921 0.000000
v -52.657898 0.000000 0.000000
v -62.233662 6.570669 0.000000
v -59.846401 3.117532 0.000000
v -56.483841 0.810221 0.000000
v -63.264149 10.398540 50.000000
v -52.657898 0.000000 50.000000
v -62.222534 6.419191 50.000000
v -59.841125 3.045662 50.000000
v -56.482475 0.791542 50.000000
v -63.339622 11.425582 -50.000000
v -52.657898 0.000000 -50.000000
v -62.269127 7.053201 -50.000000
v -59.863235 3.346476 -50.000000
v -56.488216 0.869721 -50.000000
v 63.302959 10.926636 -25.000000
v 52.657898 0.000000 -25.000000
v 62.246502 6.745193 -25.000000
v 59.852505 3.200338 -25.000000
v 56.485432 0.831741 -25.000000
v -52.657898 0.000000 -25.000000
v -63.302959 10.926636 -25.000000
v -56.485432 0.831741 -25.000000
v -59.852505 3.200338 -25.000000
v -62.246502 6.745193 -25.000000
v -52.657898 170.099869 -209.304947
v -68.243980 170.099869 -191.484009
v -56.554420 170.099869 -205.213623
v -60.450935 170.099869 -200.839920
v -64.347458 170.099869 -196.243500
v -52.657898 0.000000 75.000000
v -63.261009 10.355780 75.000000
v -56.482231 0.788287 75.000000
v -59.840202 3.033138 75.000000
v -62.220592 6.392795 75.000000
v -52.657898 0.000000 25.000000
v -63.270515 10.485163 25.000000
v -56.482960 0.798136 25.000000
v -59.842991 3.071033 25.000000
v -62.226467 6.472664 25.000000
v 63.261009 10.355780 75.000000
v 52.657898 0.000000 75.000000
v 62.220592 6.392795 75.000000
v 59.840202 3.033138 75.000000
v 56.482231 0.788287 75.000000
v 63.270515 10.485163 25.000000
v 52.657898 0.000000 25.000000
v 62.226467 6.472664 25.000000
v 59.842991 3.071033 25.000000
v 56.482960 0.798136 25.000000
v 68.243980 170.099869 -191.484009
v 52.657898 170.099869 -209.304947
v 64.347458 170.099869 -196.243500
v 60.450935 170.099869 -200.839920
v 56.554420 170.099869 -205.213623
v 52.657898 0.000000 -62.500000
v 63.367359 11.803045 -62.500000
v 56.490334 0.898452 -62.500000
v 59.871357 3.457029 -62.500000
v 62.286251 7.286213 -62.500000
v 52.657898 170.099869 -221.804947
v 68.678032 170.099869 -203.446335
v 56.662930 170.099869 -217.595367
v 60.667969 170.099869 -213.089203
v 64.672997 170.099869 -208.351273
v 52.657898 0.000000 37.500000
v 63.266830 10.435017 37.500000
v 56.482677 0.794318 37.500000
v 59.841911 3.056345 37.500000
v 62.224190 6.441709 37.500000
v 52.657898 0.000000 12.500000
v 63.275497 10.552989 12.500000
v 56.483341 0.803299 12.500000
v 59.844452 3.090899 12.500000
v 62.229546 6.514535 12.500000
v 52.657898 0.000000 87.500000
v 63.260292 10.346075 87.500000
v 56.482170 0.787549 87.500000
v 59.839993 3.030295 87.500000
v 62.220150 6.386804 87.500000
v 52.657898 0.000000 62.500000
v 63.262260 10.372813 62.500000
v 56.482338 0.789583 62.500000
v 59.840584 3.038127 62.500000
v 62.221378 6.403309 62.500000
v -63.266830 10.435017 37.500000
v -52.657898 0.000000 37.500000
v -62.224190 6.441709 37.500000
v -59.841911 3.056345 37.500000
v -56.482677 0.794318 37.500000
v -63.260292 10.346075 87.500000
v -52.657898 0.000000 87.500000
v -62.220150 6.386804 87.500000
v -59.839993 3.030295 87.500000
v -56.482170 0.787549 87.500000
v -63.367359 11.803045 -62.500000
v -52.657898 0.000000 -62.500000
v -62.286251 7.286213 -62.500000
v -59.871357 3.457029 -62.500000
v -56.490334 0.898452 -62.500000
v -63.291096 10.765236 -12.500000
v -52.657898 0.000000 -12.500000
v -62.239162 6.645558 -12.500000
v -59.849018 3.153064 -12.500000
v -56.484520 0.819455 -12.500000
v 52.657898 0.000000 -12.500000
v 63.291096 10.765236 -12.500000
v 56.484520 0.819455 -12.500000
v 59.849018 3.153064 -12.500000
v 62.239162 6.645558 -12.500000
v 52.657898 0.000000 -37.500000
v 63.318710 11.141033 -37.500000
v 56.486626 0.848061 -37.500000
v 59.857105 3.263134 -37.500000
v 62.256218 6.877544 -37.500000
v -63.318710 11.141033 -37.500000
v -52.657898 0.000000 -37.500000
v -62.256218 6.877544 -37.500000
v -59.857105 3.263134 -37.500000
v -56.486626 0.848061 -37.500000
v -68.678032 170.099869 -203.446335
v -52.657898 170.099869 -221.804947
v -64.672997 170.099869 -208.351273
v -60.667969 170.099869 -213.089203
v -56.662930 170.099869 -217.595367
v -63.262260 10.372813 62.500000
v -52.657898 0.000000 62.500000
v -62.221378 6.403309 62.500000
v -59.840584 3.038127 62.500000
v -56.482338 0.789583 62.500000
v -63.275497 10.552989 12.500000
v -52.657898 0.000000 12.500000
v -62.229546 6.514535 12.500000
v -59.844452 3.090899 12.500000
v -56.483341 0.803299 12.500000
vn -0.0000 1.0000 -0.0000
vn -0.0000 0.6908 0.7230
vn -0.2715 0.6463 0.7131
vn 0.1044 0.6830 0.7229
vn 0.2715 0.6463 0.7131
vn -0.1044 0.6830 0.7229
vn -0.7963 0.3932 0.4596
vn -0.6879 0.4654 0.5569
vn -0.5659 0.5298 0.6317
vn -0.4314 0.5857 0.6863
vn -0.9719 0.2353 0.0040
vn -0.8424 0.5389 0.0066
vn -0.5976 0.8018 0.0042
vn -0.2248 0.9744 0.0011
vn -0.9677 0.2522 0.0006
vn -0.8184 0.5747 0.0009
vn -0.5594 0.8289 0.0006
vn -0.2038 0.9790 0.0001
vn -0.9675 0.2529 0.0004
vn -0.8174 0.5761 0.0007
vn -0.5579 0.8299 0.0004
vn -0.2030 0.9792 0.0001
vn -0.9682 0.2500 0.0011
vn -0.8215 0.5701 0.0017
vn -0.5642 0.8256 0.0011
vn -0.2063 0.9785 0.0003
vn -0.9679 0.2513 0.0008
vn -0.8197 0.5727 0.0013
vn -0.5615 0.8275 0.0008
vn -0.2049 0.9788 0.0002
vn -0.9672 0.2540 0.0001
vn -0.8158 0.5783 0.0002
vn -0.5556 0.8315 0.0001
vn -0.2018 0.9794 -0.0000
vn -0.9672 0.2541 -0.0000
vn -0.8157 0.5785 0.0001
vn -0.5554 0.8316 -0.0000
vn -0.2017 0.9795 -0.0000
vn -0.9674 0.2534 0.0003
vn -0.8167 0.5771 0.0005
vn -0.5568 0.8306 0.0003
vn -0.2024 0.9793 0.0001
vn -0.9673 0.2538 0.0002
vn -0.8162 0.5778 0.0003
vn -0.5561 0.8311 0.0002
vn -0.2020 0.9794 0.0001
vn 0.2038 0.9790 0.0001
vn 0.5594 0.8289 0.0006
vn 0.8184 0.5747 0.0009
vn 0.9677 0.2522 0.0006
vn 0.2030 0.9792 0.0001
vn 0.5579 0.8299 0.0004
vn 0.8174 0.5761 0.0007
vn 0.9675 0.2529 0.0004
vn 0.2018 0.9794 -0.0000
vn 0.5556 0.8315 0.0001
vn 0.8158 0.5783 0.0002
vn 0.9672 0.2540 0.0001
vn 0.2017 0.9795 -0.0000
vn 0.5554 0.8316 -0.0000
vn 0.8157 0.5785 0.0001
vn 0.9672 0.2541 -0.0000
vn 0.4314 0.5857 0.6863
vn 0.5659 0.5298 0.6317
vn 0.6879 0.4654 0.5569
vn 0.7963 0.3932 0.4596
vn 0.2248 0.9744 0.0011
vn 0.5976 0.8018 0.0042
vn 0.8424 0.5389 0.0066
vn 0.9719 0.2353 0.0040
vn 0.2109 0.9775 0.0005
vn 0.5727 0.8198 0.0019
vn 0.8270 0.5622 0.0029
vn 0.9692 0.2462 0.0018
vn 0.2083 0.9781 0.0004
vn 0.5679 0.8231 0.0014
vn 0.8239 0.5667 0.0022
vn 0.9687 0.2483 0.0014
vn -0.9692 0.2462 0.0018
vn -0.8270 0.5622 0.0029
vn -0.5727 0.8198 0.0019
vn -0.2109 0.9775 0.0005
vn -0.9687 0.2483 0.0014
vn -0.8239 0.5667 0.0022
vn -0.5679 0.8231 0.0014
vn -0.2083 0.9781 0.0004
vn -0.9708 0.2398 0.0031
vn -0.8360 0.5487 0.0050
vn -0.5871 0.8095 0.0032
vn -0.2188 0.9758 0.0008
vn -0.9699 0.2434 0.0024
vn -0.8310 0.5563 0.0039
vn -0.5789 0.8154 0.0024
vn -0.2143 0.9768 0.0006
vn 0.2188 0.9758 0.0008
vn 0.5871 0.8095 0.0032
vn 0.8360 0.5487 0.0050
vn 0.9708 0.2398 0.0031
vn 0.2143 0.9768 0.0006
vn 0.5789 0.8154 0.0024
vn 0.8310 0.5563 0.0039
vn 0.9699 0.2434 0.0024
vn 0.2024 0.9793 0.0001
vn 0.5568 0.8306 0.0003
vn 0.8167 0.5771 0.0005
vn 0.9674 0.2534 0.0003
vn 0.2020 0.9794 0.0001
vn 0.5561 0.8311 0.0002
vn 0.8162 0.5778 0.0003
vn 0.9673 0.2538 0.0002
vn 0.2063 0.9785 0.0003
vn 0.5642 0.8256 0.0011
vn 0.8215 0.5701 0.0017
vn 0.9682 0.2500 0.0011
vn 0.2049 0.9788 0.0002
vn 0.5615 0.8275 0.0008
vn 0.8197 0.5727 0.0013
vn 0.9679 0.2513 0.0008
vn 0.9973 0.0733 -0.0000
vn -0.9973 0.0733 -0.0000
vn 0.9922 0.1128 0.0524
vn 0.3459 0.6161 0.7076
vn -0.3459 0.6161 0.7076
vn -0.9922 0.1128 0.0524
vt 0.937500 0.937500
vt 1.000000 0.937500
vt 1.000000 1.000000
vt 0.937500 1.000000
vt 0.437500 0.937500
vt 0.500000 0.937500
vt 0.500000 1.000000
vt 0.437500 1.000000
vt 0.437500 0.437500
vt 0.500000 0.437500
vt 0.500000 0.500000
vt 0.437500 0.500000
vt 0.937500 0.437500
vt 1.000000 0.437500
vt 1.000000 0.500000
vt 0.937500 0.500000
vt 0.687500 0.437500
vt 0.750000 0.437500
vt 0.750000 0.500000
vt 0.687500 0.500000
vt 0.687500 0.187500
vt 0.750000 0.187500
vt 0.750000 0.250000
vt 0.687500 0.250000
vt 0.937500 0.187500
vt 1.000000 0.187500
vt 1.000000 0.250000
vt 0.937500 0.250000
vt 0.437500 0.187500
vt 0.500000 0.187500
vt 0.500000 0.250000
vt 0.437500 0.250000
vt 0.437500 0.687500
vt 0.500000 0.687500
vt 0.500000 0.750000
vt 0.437500 0.750000
vt 0.687500 0.937500
vt 0.750000 0.937500
vt 0.750000 1.000000
vt 0.687500 1.000000
vt 0.687500 0.687500
vt 0.750000 0.687500
vt 0.750000 0.750000
vt 0.687500 0.750000
vt 0.937500 0.687500
vt 1.000000 0.687500
vt 1.000000 0.750000
vt 0.937500 0.750000
vt 0.937500 0.562500
vt 1.000000 0.562500
vt 1.000000 0.625000
vt 0.937500 0.625000
vt 0.562500 0.687500
vt 0.625000 0.687500
vt 0.625000 0.750000
vt 0.562500 0.750000
vt 0.562500 0.562500
vt 0.625000 0.562500
vt 0.625000 0.625000
vt 0.562500 0.625000
vt 0.687500 0.562500
vt 0.750000 0.562500
vt 0.750000 0.625000
vt 0.687500 0.625000
vt 0.562500 0.937500
vt 0.625000 0.937500
vt 0.625000 1.000000
vt 0.562500 1.000000
vt 0.562500 0.812500
vt 0.625000 0.812500
vt 0.625000 0.875000
vt 0.562500 0.875000
vt 0.687500 0.812500
vt 0.750000 0.812500
vt 0.750000 0.875000
vt 0.687500 0.875000
vt 0.312500 0.687500
vt 0.375000 0.687500
vt 0.375000 0.750000
vt 0.312500 0.750000
vt 0.312500 0.562500
vt 0.375000 0.562500
vt 0.375000 0.625000
vt 0.312500 0.625000
vt 0.437500 0.562500
vt 0.500000 0.562500
vt 0.500000 0.625000
vt 0.437500 0.625000
vt 0.062500 0.687500
vt 0.125000 0.687500
vt 0.125000 0.750000
vt 0.062500 0.750000
vt 0.062500 0.562500
vt 0.125000 0.562500
vt 0.125000 0.625000
vt 0.062500 0.625000
vt 0.062500 0.937500
vt 0.125000 0.937500
vt 0.125000 1.000000
vt 0.062500 1.000000
vt 0.062500 0.812500
vt 0.125000 0.812500
vt 0.125000 0.875000
vt 0.062500 0.875000
vt 0.312500 0.187500
vt 0.375000 0.187500
vt 0.375000 0.250000
vt 0.312500 0.250000
vt 0.312500 0.062500
vt 0.375000 0.062500
vt 0.375000 0.125000
vt 0.312500 0.125000
vt 0.437500 0.062500
vt 0.500000 0.062500
vt 0.500000 0.125000
vt 0.437500 0.125000
vt 0.062500 0.187500
vt 0.125000 0.187500
vt 0.125000 0.250000
vt 0.062500 0.250000
vt 0.062500 0.062500
vt 0.125000 0.062500
vt 0.125000 0.125000
vt 0.062500 0.125000
vt 0.062500 0.437500
vt 0.125000 0.437500
vt 0.125000 0.500000
vt 0.062500 0.500000
vt 0.062500 0.312500
vt 0.125000 0.312500
vt 0.125000 0.375000
vt 0.062500 0.375000
vt 0.937500 0.062500
vt 1.000000 0.062500
vt 1.000000 0.125000
vt 0.937500 0.125000
vt 0.562500 0.187500
vt 0.625000 0.187500
vt 0.625000 0.250000
vt 0.562500 0.250000
vt 0.562500 0.062500
vt 0.625000 0.062500
vt 0.625000 0.125000
vt 0.562500 0.125000
vt 0.687500 0.062500
vt 0.750000 0.062500
vt 0.750000 0.125000
vt 0.687500 0.125000
vt 0.562500 0.437500
vt 0.625000 0.437500
vt 0.625000 0.500000
vt 0.562500 0.500000
vt 0.562500 0.312500
vt 0.625000 0.312500
vt 0.625000 0.375000
vt 0.562500 0.375000
vt 0.687500 0.312500
vt 0.750000 0.312500
vt 0.750000 0.375000
vt 0.687500 0.375000
vt 0.937500 0.312500
vt 1.000000 0.312500
vt 1.000000 0.375000
vt 0.937500 0.375000
vt 0.312500 0.437500
vt 0.375000 0.437500
vt 0.375000 0.500000
vt 0.312500 0.500000
vt 0.312500 0.312500
vt 0.375000 0.312500
vt 0.375000 0.375000
vt 0.312500 0.375000
vt 0.437500 0.312500
vt 0.500000 0.312500
vt 0.500000 0.375000
vt 0.437500 0.375000
vt 0.312500 0.937500
vt 0.375000 0.937500
vt 0.375000 1.000000
vt 0.312500 1.000000
vt 0.312500 0.812500
vt 0.375000 0.812500
vt 0.375000 0.875000
vt 0.312500 0.875000
vt 0.437500 0.812500
vt 0.500000 0.812500
vt 0.500000 0.875000
vt 0.437500 0.875000
vt 0.937500 0.812500
vt 1.000000 0.812500
vt 1.000000 0.875000
vt 0.937500 0.875000
vt 0.875000 0.812500
vt 0.875000 0.875000
vt 0.875000 0.750000
vt 0.250000 0.812500
vt 0.250000 0.875000
vt 0.250000 0.750000
vt 0.250000 0.937500
vt 0.250000 1.000000
vt 0.250000 0.312500
vt 0.250000 0.375000
vt 0.250000 0.250000
vt 0.250000 0.437500
vt 0.250000 0.500000
vt 0.875000 0.312500
vt 0.875000 0.375000
vt 0.875000 0.250000
vt 0.625000 0.000000
vt 0.687500 0.000000
vt 0.750000 0.000000
vt 0.500000 0.000000
vt 0.562500 0.000000
vt 0.875000 0.062500
vt 0.875000 0.125000
vt 0.875000 0.000000
vt 0.937500 0.000000
vt 1.000000 0.000000
vt 0.000000 0.312500
vt 0.000000 0.375000
vt 0.000000 0.250000
vt 0.000000 0.437500
vt 0.000000 0.500000
vt 0.000000 0.062500
vt 0.000000 0.125000
vt 0.000000 0.000000
vt 0.062500 0.000000
vt 0.125000 0.000000
vt 0.000000 0.187500
vt 0.375000 0.000000
vt 0.437500 0.000000
vt 0.250000 0.062500
vt 0.250000 0.125000
vt 0.250000 0.000000
vt 0.312500 0.000000
vt 0.250000 0.187500
vt 0.000000 0.812500
vt 0.000000 0.875000
vt 0.000000 0.750000
vt 0.000000 0.937500
vt 0.000000 1.000000
vt 0.000000 0.562500
vt 0.000000 0.625000
vt 0.000000 0.687500
vt 0.250000 0.562500
vt 0.250000 0.625000
vt 0.250000 0.687500
vt 0.875000 0.562500
vt 0.875000 0.625000
vt 0.875000 0.500000
vt 0.875000 0.687500
vt 0.875000 0.187500
vt 0.875000 0.437500
vt 0.875000 0.937500
vt 0.875000 1.000000
vt 0.816837 0.812500
vt 0.841220 0.875000
vt 0.821737 0.875000
vt 0.815058 0.812583
vt 0.812500 0.875000
vt 0.812500 0.813448
vt 0.782772 0.875000
vt 0.782452 0.812749
vt 0.763289 0.875000
vt 0.763289 0.812500
vt 0.816698 0.750000
vt 0.815070 0.750000
vt 0.812500 0.750000
vt 0.782441 0.750000
vt 0.763289 0.750000
vt 0.843390 0.937500
vt 0.844095 1.000000
vt 0.823893 1.000000
vt 0.823365 0.937500
vt 0.812500 1.000000
vt 0.812500 0.937500
vt 0.783491 1.000000
vt 0.783315 0.937500
vt 0.763289 1.000000
vt 0.763289 0.937500
vt 0.816334 0.312500
vt 0.816353 0.375000
vt 0.814856 0.375000
vt 0.814845 0.312500
vt 0.812500 0.375000
vt 0.812500 0.312500
vt 0.782415 0.375000
vt 0.782413 0.312500
vt 0.763290 0.375000
vt 0.763290 0.312500
vt 0.816321 0.250000
vt 0.814837 0.250000
vt 0.812500 0.250000
vt 0.782412 0.250000
vt 0.763289 0.250000
vt 0.816378 0.437500
vt 0.816411 0.500000
vt 0.814892 0.500000
vt 0.814872 0.437500
vt 0.812500 0.500000
vt 0.812500 0.437500
vt 0.782419 0.500000
vt 0.782417 0.437500
vt 0.763289 0.500000
vt 0.763289 0.437500
vt 0.816302 0.062500
vt 0.816305 0.125000
vt 0.814827 0.125000
vt 0.814825 0.062500
vt 0.812500 0.125000
vt 0.812500 0.062500
vt 0.782411 0.125000
vt 0.782411 0.062500
vt 0.763289 0.125000
vt 0.763289 0.062500
vt 0.816300 0.000000
vt 0.814824 0.000000
vt 0.812500 0.000000
vt 0.782411 0.000000
vt 0.763289 0.000000
vt 0.816311 0.187500
vt 0.814831 0.187500
vt 0.812500 0.187500
vt 0.782412 0.187500
vt 0.763289 0.187500
vt 0.236711 0.312500
vt 0.236711 0.375000
vt 0.217585 0.375000
vt 0.217587 0.312500
vt 0.187500 0.375000
vt 0.187500 0.312500
vt 0.185144 0.375000
vt 0.185155 0.312500
vt 0.183647 0.375000
vt 0.183666 0.312500
vt 0.236711 0.250000
vt 0.217588 0.250000
vt 0.187500 0.250000
vt 0.185163 0.250000
vt 0.183679 0.250000
vt 0.236711 0.062500
vt 0.236711 0.125000
vt 0.217589 0.125000
vt 0.217589 0.062500
vt 0.187500 0.125000
vt 0.187500 0.062500
vt 0.185173 0.125000
vt 0.185175 0.062500
vt 0.183695 0.125000
vt 0.183699 0.062500
vt 0.236711 0.000000
vt 0.217589 0.000000
vt 0.187500 0.000000
vt 0.185176 0.000000
vt 0.183700 0.000000
vt 0.236711 0.812500
vt 0.236711 0.875000
vt 0.217228 0.875000
vt 0.217548 0.812749
vt 0.187500 0.875000
vt 0.187500 0.813448
vt 0.178263 0.875000
vt 0.184942 0.812583
vt 0.158780 0.875000
vt 0.183163 0.812500
vt 0.236711 0.750000
vt 0.217559 0.750000
vt 0.187500 0.750000
vt 0.184930 0.750000
vt 0.183302 0.750000
vt 0.236711 0.562500
vt 0.236711 0.625000
vt 0.217573 0.625000
vt 0.217577 0.562500
vt 0.187500 0.625000
vt 0.187500 0.562500
vt 0.185044 0.625000
vt 0.185080 0.562500
vt 0.183485 0.625000
vt 0.183545 0.562500
vt 0.236711 0.500000
vt 0.217581 0.500000
vt 0.187500 0.500000
vt 0.185108 0.500000
vt 0.183589 0.500000
vt 0.816455 0.562500
vt 0.816515 0.625000
vt 0.814956 0.625000
vt 0.814920 0.562500
vt 0.812500 0.625000
vt 0.812500 0.562500
vt 0.782427 0.625000
vt 0.782423 0.562500
vt 0.763289 0.625000
vt 0.763289 0.562500
vt 0.816594 0.687500
vt 0.815005 0.687500
vt 0.812500 0.687500
vt 0.782433 0.687500
vt 0.763289 0.687500
vt 0.236711 0.687500
vt 0.217567 0.687500
vt 0.187500 0.687500
vt 0.184995 0.687500
vt 0.183406 0.687500
vt 0.236711 0.937500
vt 0.236710 1.000000
vt 0.216509 1.000000
vt 0.216685 0.937500
vt 0.187500 1.000000
vt 0.187500 0.937500
vt 0.176107 1.000000
vt 0.176635 0.937500
vt 0.155905 1.000000
vt 0.156610 0.937500
vt 0.236710 0.187500
vt 0.217588 0.187500
vt 0.187500 0.187500
vt 0.185169 0.187500
vt 0.183689 0.187500
vt 0.236711 0.437500
vt 0.217583 0.437500
vt 0.187500 0.437500
vt 0.185128 0.437500
vt 0.183623 0.437500
s 0
f 255/1/1 84/2/1 4/3/1 133/4/1
f 254/5/1 90/6/1 8/7/1 129/8/1
f 253/9/1 91/10/1 9/11/1 136/12/1
f 252/13/1 88/14/1 7/15/1 137/16/1
f 251/17/1 103/18/1 21/19/1 125/20/1
f 250/21/1 104/22/1 22/23/1 140/24/1
f 249/25/1 99/26/1 16/27/1 141/28/1
f 248/29/1 101/30/1 19/31/1 144/32/1
f 247/33/1 100/34/1 18/35/1 147/36/1
f 246/37/1 114/38/1 17/39/1 122/40/1
f 245/41/1 115/42/1 25/43/1 150/44/1
f 244/45/1 96/46/1 12/47/1 151/48/1
f 243/49/1 128/50/1 40/51/1 154/52/1
f 242/53/1 155/54/1 64/55/1 116/56/1
f 241/57/1 156/58/1 67/59/1 157/60/1
f 240/61/1 149/62/1 63/63/1 158/64/1
f 239/65/1 159/66/1 33/67/1 89/68/1
f 238/69/2 160/70/2 68/71/2 161/72/2
f 237/73/3 148/74/3 62/75/3 162/76/3
f 236/77/1 163/78/1 61/79/1 113/80/1
f 235/81/1 164/82/1 69/83/1 165/84/1
f 234/85/1 134/86/1 46/87/1 166/88/1
f 233/89/1 167/90/1 60/91/1 112/92/1
f 232/93/1 168/94/1 70/95/1 169/96/1
f 231/97/1 170/98/1 29/99/1 85/100/1
f 230/101/1 171/102/1 71/103/1 172/104/1
f 229/105/1 173/106/1 57/107/1 109/108/1
f 228/109/1 174/110/1 72/111/1 175/112/1
f 227/113/1 135/114/1 47/115/1 176/116/1
f 226/117/1 177/118/1 56/119/1 108/120/1
f 225/121/1 178/122/1 73/123/1 179/124/1
f 224/125/1 180/126/1 36/127/1 92/128/1
f 223/129/1 181/130/1 74/131/1 182/132/1
f 222/133/1 132/134/1 44/135/1 185/136/1
f 221/137/1 186/138/1 52/139/1 105/140/1
f 220/141/1 187/142/1 76/143/1 188/144/1
f 219/145/1 139/146/1 51/147/1 189/148/1
f 218/149/1 190/150/1 37/151/1 93/152/1
f 217/153/1 191/154/1 77/155/1 192/156/1
f 216/157/1 138/158/1 50/159/1 193/160/1
f 215/161/1 121/162/1 32/163/1 196/164/1
f 214/165/1 197/166/1 48/167/1 102/168/1
f 213/169/1 198/170/1 79/171/1 199/172/1
f 212/173/1 124/174/1 35/175/1 200/176/1
f 211/177/1 201/178/1 41/179/1 97/180/1
f 210/181/4 202/182/4 80/183/4 203/184/4
f 209/185/2 123/186/2 34/187/2 204/188/2
f 208/189/1 118/190/1 28/191/1 207/192/1
f 206/193/1 208/189/1 207/192/1 81/194/1
f 65/195/1 151/48/1 208/189/1 206/193/1
f 151/48/1 12/47/1 118/190/1 208/189/1
f 202/182/2 209/185/2 204/188/2 80/183/2
f 61/79/1 147/36/1 209/185/1 202/182/1
f 147/36/1 18/35/1 123/186/1 209/185/1
f 145/196/5 210/181/5 203/184/5 58/197/5
f 24/198/1 113/80/1 210/181/1 145/196/1
f 113/80/1 61/79/1 202/182/1 210/181/1
f 110/199/1 211/177/1 97/180/1 13/200/1
f 58/197/1 203/184/1 211/177/1 110/199/1
f 203/184/1 80/183/1 201/178/1 211/177/1
f 198/170/1 212/173/1 200/176/1 79/171/1
f 57/107/1 144/32/1 212/173/1 198/170/1
f 144/32/1 19/31/1 124/174/1 212/173/1
f 142/201/1 213/169/1 199/172/1 54/202/1
f 23/203/1 109/108/1 213/169/1 142/201/1
f 109/108/1 57/107/1 198/170/1 213/169/1
f 106/204/1 214/165/1 102/168/1 20/205/1
f 54/202/1 199/172/1 214/165/1 106/204/1
f 199/172/1 79/171/1 197/166/1 214/165/1
f 195/206/1 215/161/1 196/164/1 78/207/1
f 53/208/1 141/28/1 215/161/1 195/206/1
f 141/28/1 16/27/1 121/162/1 215/161/1
f 191/154/1 216/157/1 193/160/1 77/155/1
f 52/139/1 140/24/1 216/157/1 191/154/1
f 140/24/1 22/23/1 138/158/1 216/157/1
f 124/174/1 217/153/1 192/156/1 35/175/1
f 19/31/1 105/140/1 217/153/1 124/174/1
f 105/140/1 52/139/1 191/154/1 217/153/1
f 91/10/1 218/149/1 93/152/1 9/11/1
f 35/175/1 192/156/1 218/149/1 91/10/1
f 192/156/1 77/155/1 190/150/1 218/149/1
f 187/142/1 219/145/1 189/148/1 76/143/1
f 39/209/1 95/210/1 219/145/1 187/142/1
f 95/210/1 11/211/1 139/146/1 219/145/1
f 135/114/1 220/141/1 188/144/1 47/115/1
f 6/212/1 127/213/1 220/141/1 135/114/1
f 127/213/1 39/209/1 187/142/1 220/141/1
f 101/30/1 221/137/1 105/140/1 19/31/1
f 47/115/1 188/144/1 221/137/1 101/30/1
f 188/144/1 76/143/1 186/138/1 221/137/1
f 184/214/1 222/133/1 185/136/1 75/215/1
f 27/216/1 83/217/1 222/133/1 184/214/1
f 83/217/1 2/218/1 132/134/1 222/133/1
f 94/219/1 223/129/1 182/132/1 38/220/1
f 10/221/1 108/120/1 223/129/1 94/219/1
f 108/120/1 56/119/1 181/130/1 223/129/1
f 126/222/1 224/125/1 92/128/1 5/223/1
f 38/220/1 182/132/1 224/125/1 126/222/1
f 182/132/1 74/131/1 180/126/1 224/125/1
f 82/224/1 225/121/1 179/124/1 26/225/1
f 1/226/1 131/227/1 225/121/1 82/224/1
f 131/227/1 43/228/1 178/122/1 225/121/1
f 117/229/1 226/117/1 108/120/1 10/221/1
f 26/225/1 179/124/1 226/117/1 117/229/1
f 179/124/1 73/123/1 177/118/1 226/117/1
f 174/110/1 227/113/1 176/116/1 72/111/1
f 31/230/1 87/231/1 227/113/1 174/110/1
f 87/231/1 6/212/1 135/114/1 227/113/1
f 143/232/1 228/109/1 175/112/1 55/233/1
f 15/234/1 120/235/1 228/109/1 143/232/1
f 120/235/1 31/230/1 174/110/1 228/109/1
f 107/236/1 229/105/1 109/108/1 23/203/1
f 55/233/1 175/112/1 229/105/1 107/236/1
f 175/112/1 72/111/1 173/106/1 229/105/1
f 98/237/1 230/101/1 172/104/1 42/238/1
f 14/239/1 112/92/1 230/101/1 98/237/1
f 112/92/1 60/91/1 171/102/1 230/101/1
f 130/240/1 231/97/1 85/100/1 3/241/1
f 42/238/1 172/104/1 231/97/1 130/240/1
f 172/104/1 71/103/1 170/98/1 231/97/1
f 86/242/1 232/93/1 169/96/1 30/243/1
f 5/223/1 92/128/1 232/93/1 86/242/1
f 92/128/1 36/127/1 168/94/1 232/93/1
f 119/244/1 233/89/1 112/92/1 14/239/1
f 30/243/1 169/96/1 233/89/1 119/244/1
f 169/96/1 70/95/1 167/90/1 233/89/1
f 164/82/1 234/85/1 166/88/1 69/83/1
f 48/167/1 136/12/1 234/85/1 164/82/1
f 136/12/1 9/11/1 134/86/1 234/85/1
f 146/245/1 235/81/1 165/84/1 59/246/1
f 20/205/1 102/168/1 235/81/1 146/245/1
f 102/168/1 48/167/1 164/82/1 235/81/1
f 111/247/1 236/77/1 113/80/1 24/198/1
f 59/246/1 165/84/1 236/77/1 111/247/1
f 165/84/1 69/83/1 163/78/1 236/77/1
f 160/70/6 237/73/6 162/76/6 68/71/6
f 64/55/1 150/44/1 237/73/1 160/70/1
f 150/44/1 25/43/1 148/74/1 237/73/1
f 123/186/2 238/69/2 161/72/2 34/187/2
f 18/35/1 116/56/1 238/69/1 123/186/1
f 116/56/1 64/55/1 160/70/1 238/69/1
f 90/6/1 239/65/1 89/68/1 8/7/1
f 34/187/1 161/72/1 239/65/1 90/6/1
f 161/72/1 68/71/1 159/66/1 239/65/1
f 156/58/1 240/61/1 158/64/1 67/59/1
f 37/151/1 125/20/1 240/61/1 156/58/1
f 125/20/1 21/19/1 149/62/1 240/61/1
f 134/86/1 241/57/1 157/60/1 46/87/1
f 9/11/1 93/152/1 241/57/1 134/86/1
f 93/152/1 37/151/1 156/58/1 241/57/1
f 100/34/1 242/53/1 116/56/1 18/35/1
f 46/87/1 157/60/1 242/53/1 100/34/1
f 157/60/1 67/59/1 155/54/1 242/53/1
f 153/248/1 243/49/1 154/52/1 66/249/1
f 49/250/1 137/16/1 243/49/1 153/248/1
f 137/16/1 7/15/1 128/50/1 243/49/1
f 152/251/1 244/45/1 151/48/1 65/195/1
f 66/249/1 154/52/1 244/45/1 152/251/1
f 154/52/1 40/51/1 96/46/1 244/45/1
f 155/54/1 245/41/1 150/44/1 64/55/1
f 67/59/1 158/64/1 245/41/1 155/54/1
f 158/64/1 63/63/1 115/42/1 245/41/1
f 159/66/1 246/37/1 122/40/1 33/67/1
f 68/71/1 162/76/1 246/37/1 159/66/1
f 162/76/1 62/75/1 114/38/1 246/37/1
f 163/78/1 247/33/1 147/36/1 61/79/1
f 69/83/1 166/88/1 247/33/1 163/78/1
f 166/88/1 46/87/1 100/34/1 247/33/1
f 173/106/1 248/29/1 144/32/1 57/107/1
f 72/111/1 176/116/1 248/29/1 173/106/1
f 176/116/1 47/115/1 101/30/1 248/29/1
f 183/252/1 249/25/1 141/28/1 53/208/1
f 75/215/1 185/136/1 249/25/1 183/252/1
f 185/136/1 44/135/1 99/26/1 249/25/1
f 186/138/1 250/21/1 140/24/1 52/139/1
f 76/143/1 189/148/1 250/21/1 186/138/1
f 189/148/1 51/147/1 104/22/1 250/21/1
f 190/150/1 251/17/1 125/20/1 37/151/1
f 77/155/1 193/160/1 251/17/1 190/150/1
f 193/160/1 50/159/1 103/18/1 251/17/1
f 194/253/1 252/13/1 137/16/1 49/250/1
f 78/207/1 196/164/1 252/13/1 194/253/1
f 196/164/1 32/163/1 88/14/1 252/13/1
f 197/166/1 253/9/1 136/12/1 48/167/1
f 79/171/1 200/176/1 253/9/1 197/166/1
f 200/176/1 35/175/1 91/10/1 253/9/1
f 201/178/1 254/5/1 129/8/1 41/179/1
f 80/183/1 204/188/1 254/5/1 201/178/1
f 204/188/1 34/187/1 90/6/1 254/5/1
f 205/254/1 255/1/1 133/4/1 45/255/1
f 81/194/1 207/192/1 255/1/1 205/254/1
f 207/192/1 28/191/1 84/2/1 255/1/1
f 347/256/7 341/257/7 343/258/7 350/259/7
f 350/259/8 343/258/8 344/260/8 349/261/8
f 349/261/9 344/260/9 345/262/9 348/263/9
f 348/263/10 345/262/10 342/264/10 346/265/10
f 277/266/11 347/256/11 350/259/11 280/267/11
f 280/267/12 350/259/12 349/261/12 279/268/12
f 279/268/13 349/261/13 348/263/13 278/269/13
f 278/269/14 348/263/14 346/265/14 276/270/14
f 352/271/1 262/272/1 265/273/1 355/274/1
f 355/274/1 265/273/1 264/275/1 354/276/1
f 354/276/1 264/275/1 263/277/1 353/278/1
f 353/278/1 263/277/1 261/279/1 351/280/1
f 341/257/1 352/271/1 355/274/1 343/258/1
f 343/258/1 355/274/1 354/276/1 344/260/1
f 344/260/1 354/276/1 353/278/1 345/262/1
f 345/262/1 353/278/1 351/280/1 342/264/1
f 357/281/15 336/282/15 338/283/15 360/284/15
f 360/284/16 338/283/16 339/285/16 359/286/16
f 359/286/17 339/285/17 340/287/17 358/288/17
f 358/288/18 340/287/18 337/289/18 356/290/18
f 272/291/19 357/281/19 360/284/19 275/292/19
f 275/292/20 360/284/20 359/286/20 274/293/20
f 274/293/21 359/286/21 358/288/21 273/294/21
f 273/294/22 358/288/22 356/290/22 271/295/22
f 362/296/23 266/297/23 268/298/23 365/299/23
f 365/299/24 268/298/24 269/300/24 364/301/24
f 364/301/25 269/300/25 270/302/25 363/303/25
f 363/303/26 270/302/26 267/304/26 361/305/26
f 336/282/27 362/296/27 365/299/27 338/283/27
f 338/283/28 365/299/28 364/301/28 339/285/28
f 339/285/29 364/301/29 363/303/29 340/287/29
f 340/287/30 363/303/30 361/305/30 337/289/30
f 367/306/31 331/307/31 333/308/31 370/309/31
f 370/309/32 333/308/32 334/310/32 369/311/32
f 369/311/33 334/310/33 335/312/33 368/313/33
f 368/313/34 335/312/34 332/314/34 366/315/34
f 281/316/35 367/306/35 370/309/35 283/317/35
f 283/317/36 370/309/36 369/311/36 284/318/36
f 284/318/37 369/311/37 368/313/37 285/319/37
f 285/319/38 368/313/38 366/315/38 282/320/38
f 372/321/39 272/291/39 275/292/39 375/322/39
f 375/322/40 275/292/40 274/293/40 374/323/40
f 374/323/41 274/293/41 273/294/41 373/324/41
f 373/324/42 273/294/42 271/295/42 371/325/42
f 331/307/43 372/321/43 375/322/43 333/308/43
f 333/308/44 375/322/44 374/323/44 334/310/44
f 334/310/45 374/323/45 373/324/45 335/312/45
f 335/312/46 373/324/46 371/325/46 332/314/46
f 377/326/47 326/327/47 328/328/47 380/329/47
f 380/329/48 328/328/48 329/330/48 379/331/48
f 379/331/49 329/330/49 330/332/49 378/333/49
f 378/333/50 330/332/50 327/334/50 376/335/50
f 297/336/51 377/326/51 380/329/51 300/337/51
f 300/337/52 380/329/52 379/331/52 299/338/52
f 299/338/53 379/331/53 378/333/53 298/339/53
f 298/339/54 378/333/54 376/335/54 296/340/54
f 382/341/55 321/342/55 323/343/55 385/344/55
f 385/344/56 323/343/56 324/345/56 384/346/56
f 384/346/57 324/345/57 325/347/57 383/348/57
f 383/348/58 325/347/58 322/349/58 381/350/58
f 256/351/59 382/341/59 385/344/59 258/352/59
f 258/352/60 385/344/60 384/346/60 259/353/60
f 259/353/61 384/346/61 383/348/61 260/354/61
f 260/354/62 383/348/62 381/350/62 257/355/62
f 387/356/63 316/357/63 318/358/63 390/359/63
f 390/359/64 318/358/64 319/360/64 389/361/64
f 389/361/65 319/360/65 320/362/65 388/363/65
f 388/363/66 320/362/66 317/364/66 386/365/66
f 302/366/67 387/356/67 390/359/67 305/367/67
f 305/367/68 390/359/68 389/361/68 304/368/68
f 304/368/69 389/361/69 388/363/69 303/369/69
f 303/369/70 388/363/70 386/365/70 301/370/70
f 392/371/71 311/372/71 313/373/71 395/374/71
f 395/374/72 313/373/72 314/375/72 394/376/72
f 394/376/73 314/375/73 315/377/73 393/378/73
f 393/378/74 315/377/74 312/379/74 391/380/74
f 292/381/75 392/371/75 395/374/75 295/382/75
f 295/382/76 395/374/76 394/376/76 294/383/76
f 294/383/77 394/376/77 393/378/77 293/384/77
f 293/384/78 393/378/78 391/380/78 291/385/78
f 397/386/79 306/387/79 308/388/79 400/389/79
f 400/389/80 308/388/80 309/390/80 399/391/80
f 399/391/81 309/390/81 310/392/81 398/393/81
f 398/393/82 310/392/82 307/394/82 396/395/82
f 266/297/83 397/386/83 400/389/83 268/298/83
f 268/298/84 400/389/84 399/391/84 269/300/84
f 269/300/85 399/391/85 398/393/85 270/302/85
f 270/302/86 398/393/86 396/395/86 267/304/86
f 402/396/87 277/266/87 280/267/87 405/397/87
f 405/397/88 280/267/88 279/268/88 404/398/88
f 404/398/89 279/268/89 278/269/89 403/399/89
f 403/399/90 278/269/90 276/270/90 401/400/90
f 306/387/91 402/396/91 405/397/91 308/388/91
f 308/388/92 405/397/92 404/398/92 309/390/92
f 309/390/93 404/398/93 403/399/93 310/392/93
f 310/392/94 403/399/94 401/400/94 307/394/94
f 407/401/95 302/366/95 305/367/95 410/402/95
f 410/402/96 305/367/96 304/368/96 409/403/96
f 409/403/97 304/368/97 303/369/97 408/404/97
f 408/404/98 303/369/98 301/370/98 406/405/98
f 311/372/99 407/401/99 410/402/99 313/373/99
f 313/373/100 410/402/100 409/403/100 314/375/100
f 314/375/101 409/403/101 408/404/101 315/377/101
f 315/377/102 408/404/102 406/405/102 312/379/102
f 412/406/1 287/407/1 290/408/1 415/409/1
f 415/409/1 290/408/1 289/410/1 414/411/1
f 414/411/1 289/410/1 288/412/1 413/413/1
f 413/413/1 288/412/1 286/414/1 411/415/1
f 316/357/1 412/406/1 415/409/1 318/358/1
f 318/358/1 415/409/1 414/411/1 319/360/1
f 319/360/1 414/411/1 413/413/1 320/362/1
f 320/362/1 413/413/1 411/415/1 317/364/1
f 417/416/103 297/336/103 300/337/103 420/417/103
f 420/417/104 300/337/104 299/338/104 419/418/104
f 419/418/105 299/338/105 298/339/105 418/419/105
f 418/419/106 298/339/106 296/340/106 416/420/106
f 321/342/107 417/416/107 420/417/107 323/343/107
f 323/343/108 420/417/108 419/418/108 324/345/108
f 324/345/109 419/418/109 418/419/109 325/347/109
f 325/347/110 418/419/110 416/420/110 322/349/110
f 422/421/111 292/381/111 295/382/111 425/422/111
f 425/422/112 295/382/112 294/383/112 424/423/112
f 424/423/113 294/383/113 293/384/113 423/424/113
f 423/424/114 293/384/114 291/385/114 421/425/114
f 326/327/115 422/421/115 425/422/115 328/328/115
f 328/328/116 425/422/116 424/423/116 329/330/116
f 329/330/117 424/423/117 423/424/117 330/332/117
f 330/332/118 423/424/118 421/425/118 327/334/118
f 256/351/1 15/234/1 143/232/1 382/341/1
f 43/228/119 257/355/119 381/350/119 178/122/119
f 114/38/1 351/280/1 261/279/1 17/39/1
f 352/271/1 205/254/1 45/255/1 262/272/1
f 21/19/1 267/304/1 396/395/1 149/62/1
f 103/18/1 361/305/1 267/304/1 21/19/1
f 266/297/120 49/250/120 153/248/120 397/386/120
f 362/296/120 194/253/120 49/250/120 266/297/120
f 104/22/1 371/325/1 271/295/1 22/23/1
f 272/291/120 53/208/120 195/206/120 357/281/120
f 22/23/1 271/295/1 356/290/1 138/158/1
f 372/321/120 183/252/120 53/208/120 272/291/120
f 115/42/1 401/400/1 276/270/1 25/43/1
f 277/266/120 65/195/120 206/193/120 347/256/120
f 25/43/1 276/270/1 346/265/1 148/74/1
f 402/396/120 152/251/120 65/195/120 277/266/120
f 281/316/120 27/216/120 184/214/120 367/306/120
f 11/211/1 282/320/1 366/315/1 139/146/1
f 170/98/1 411/415/1 286/414/1 29/99/1
f 412/406/1 110/199/1 13/200/1 287/407/1
f 180/126/119 421/425/119 291/385/119 36/127/119
f 292/381/1 20/205/1 146/245/1 392/371/1
f 36/127/119 291/385/119 391/380/119 168/94/119
f 422/421/1 106/204/1 20/205/1 292/381/1
f 177/118/119 416/420/119 296/340/119 56/119/119
f 297/336/1 23/203/1 142/201/1 377/326/1
f 56/119/119 296/340/119 376/335/119 181/130/119
f 417/416/1 107/236/1 23/203/1 297/336/1
f 167/90/119 406/405/119 301/370/119 60/91/119
f 302/366/1 24/198/1 145/196/1 387/356/1
f 60/91/119 301/370/119 386/365/119 171/102/119
f 407/401/1 111/247/1 24/198/1 302/366/1
f 63/63/1 307/394/1 401/400/1 115/42/1
f 149/62/1 396/395/1 307/394/1 63/63/1
f 306/387/120 66/249/120 152/251/120 402/396/120
f 397/386/120 153/248/120 66/249/120 306/387/120
f 70/95/119 312/379/119 406/405/119 167/90/119
f 168/94/119 391/380/119 312/379/119 70/95/119
f 311/372/1 59/246/1 111/247/1 407/401/1
f 392/371/1 146/245/1 59/246/1 311/372/1
f 71/103/1 317/364/1 411/415/1 170/98/1
f 171/102/121 386/365/121 317/364/121 71/103/121
f 316/357/1 58/197/1 110/199/1 412/406/1
f 387/356/122 145/196/122 58/197/122 316/357/122
f 73/123/119 322/349/119 416/420/119 177/118/119
f 178/122/119 381/350/119 322/349/119 73/123/119
f 321/342/1 55/233/1 107/236/1 417/416/1
f 382/341/1 143/232/1 55/233/1 321/342/1
f 74/131/119 327/334/119 421/425/119 180/126/119
f 181/130/119 376/335/119 327/334/119 74/131/119
f 326/327/1 54/202/1 106/204/1 422/421/1
f 377/326/1 142/201/1 54/202/1 326/327/1
f 51/147/1 332/314/1 371/325/1 104/22/1
f 139/146/1 366/315/1 332/314/1 51/147/1
f 331/307/120 75/215/120 183/252/120 372/321/120
f 367/306/120 184/214/120 75/215/120 331/307/120
f 50/159/1 337/289/1 361/305/1 103/18/1
f 138/158/1 356/290/1 337/289/1 50/159/1
f 336/282/120 78/207/120 194/253/120 362/296/120
f 357/281/120 195/206/120 78/207/120 336/282/120
f 62/75/1 342/264/1 351/280/1 114/38/1
f 148/74/123 346/265/123 342/264/123 62/75/123
f 341/257/1 81/194/1 205/254/1 352/271/1
f 347/256/124 206/193/124 81/194/124 341/257/124
